# xmcd
#
# Track frame offsets: 
#        150
#        22511
#        35623
#        50801
#        66485
#        78954
#        103802
#        120674
#        144988
#        165720
#        183119
#        204944
#
# Disc length: 3079 seconds
#
# Revision: 1
# Processed by: cddbd v1.5.2PL0 Copyright (c) Steve Scherf et al.
# Submitted via: ExactAudioCopy v0.95b3
#
DISCID=9b0c050c
DTITLE=Bonnie Bramlett - Roots, Blues And Jazz
DYEAR=2006
DGENRE=Blues
TTITLE0=Love The One You're With
TTITLE1=I Can Laugh About It Now
TTITLE2=No Particular Place To Go
TTITLE3=I'm Confessin'
TTITLE4=Gotcha
TTITLE5=That Lucky Old Sun
TTITLE6=Mercy, Mercy, Mercy
TTITLE7=A Change Is Gonna Come
TTITLE8=Carefree
TTITLE9=Work Song
TTITLE10=Love Hurts
TTITLE11=Harlem Nocturne
EXTD=
EXTT0=
EXTT1=
EXTT2=
EXTT3=
EXTT4=
EXTT5=
EXTT6=
EXTT7=
EXTT8=
EXTT9=
EXTT10=
EXTT11=
PLAYORDER=
